<svg id="LOGO" xmlns="http://www.w3.org/2000/svg" viewBox="0 0 1412.76 775.39"><defs><style>.cls-1{fill:url(#linear-gradient);}.cls-2{fill:url(#linear-gradient-2);}</style><linearGradient id="linear-gradient" x1="772.11" y1="1158.98" x2="1611.54" y2="465.25" gradientUnits="userSpaceOnUse"><stop offset="0" stop-color="#4bc7ef"/><stop offset="0.83" stop-color="#48509e"/></linearGradient><linearGradient id="linear-gradient-2" x1="467.56" y1="1078.05" x2="1093.78" y2="424.86" gradientUnits="userSpaceOnUse"><stop offset="0" stop-color="#ed3337"/><stop offset="1" stop-color="#fb730b"/></linearGradient></defs><path class="cls-1" d="M597.7,670.87c10.42-4.38,20.58-9.54,31.3-13,41-13.24,81-8.23,118.85,10.72,38.32,19.16,71.53,45.72,102,75.73,21.81,21.5,43.86,42.76,65.47,64.45,27.17,27.28,53.75,55.15,81,82.31,36.63,36.46,73,73.27,110.81,108.44,29.58,27.48,62,51.5,97.91,70.73,31.37,16.8,64.36,27.76,99.58,31,43.82,4.09,86.36-2.53,126.61-20.58a262.57,262.57,0,0,0,73.54-48.89c40-37.73,65.88-83,77.64-136.62,5.67-25.89,8.41-52.07,4.72-78.32-7.37-52.56-26-100.64-60.19-141.93-29.12-35.18-65.27-60.46-108-76.68-57.31-21.79-115.32-23-173.28-4.27-33.9,10.94-64.27,29.18-90.86,53.21-15.43,13.94-30.67,28.09-46.62,42.72l-86.19-77.75c7.58-9.33,14.74-19,22.8-27.92,20-22.08,42.79-40.76,67.91-57s51.88-28.08,79.62-38.61c35.37-13.42,72-19.85,109.51-22.73a368.12,368.12,0,0,1,145.53,17.84c27.82,9.25,54.76,21.27,79.36,37.53a413.12,413.12,0,0,1,91.57,81.86c35.34,42.81,60.58,90.39,75.41,144,10.07,36.41,13.77,73.23,12.29,110.6-1.87,47-13.87,91.76-32.33,134.93a379.83,379.83,0,0,1-115.33,148.45c-45.25,35.2-95.72,59.17-151.85,70.21-35.68,7-71.72,10.13-108.42,6.66-43.85-4.14-86.43-12.6-126.63-30.65-32.79-14.71-63.3-33.54-90.51-57.17-26.35-22.89-52.27-46.27-78.16-69.69-24.11-21.81-47.88-44-71.86-65.93-23.27-21.31-46.67-42.48-69.89-63.83-27.65-25.42-55.41-50.72-82.7-76.52-32-30.23-63.58-60.89-95.23-91.47-17.87-17.28-35.84-34.48-53.17-52.3-11.3-11.61-21.54-24.25-32.25-36.43C597.73,673,597.71,671.93,597.7,670.87Z" transform="translate(-293.62 -464.83)"/><path class="cls-2" d="M1124.7,927.73c-15.61-13.62-31.17-27-46.48-40.64-10.89-9.71-21.59-19.67-32.14-29.76-23.85-22.8-47.52-45.78-71.32-68.63-26-25-51.77-50.42-78.34-74.89-33-30.38-68.2-57.72-107.73-79.45-43.69-24-90-35.69-139.74-32.17-28.07,2-55,9.46-80.61,21.33-40.17,18.64-76.08,43.14-104.73,77.39-25.16,30.09-42.41,64.2-49.77,102.77A368.1,368.1,0,0,0,408,855.42c-1.46,32,6.42,62.58,16.45,92.6,11.92,35.67,31.35,67.26,56.21,95.14a260.15,260.15,0,0,0,81.76,62,225.68,225.68,0,0,0,109.73,22.54c32.74-1.43,63.94-9.56,94-23,36.44-16.34,68.54-38.94,98.44-64.92,8.06-7,14.53-15.83,22.08-24.21,8,5.8,14.23,9.8,19.89,14.47,22.19,18.31,43.1,37.91,60.64,60.9,3.3,4.31,3.61,7.33.21,11.83a319.94,319.94,0,0,1-81.59,75.77,377.94,377.94,0,0,1-140.43,55.22,401.11,401.11,0,0,1-115,4.18c-27.19-3-54-7.82-79.84-16.38-63.32-21-119.4-53.51-163.62-104.55a392.39,392.39,0,0,1-44.25-63.41c-16.93-29.77-27.79-61.71-36.9-94.54-11.21-40.4-13.62-81.58-11.45-123,2.27-43,13.44-84.3,29.76-124.19a330.87,330.87,0,0,1,49.83-83.51c34.52-42.46,76.66-75.7,125.8-100.35a428.91,428.91,0,0,1,124.93-40.07c50.87-8.25,100-1.18,148.36,14.12,54.82,17.33,102.87,47.22,147.91,82.05,24.94,19.29,49.12,39.66,72.5,60.82,33.69,30.5,66.43,62.06,99.4,93.35,24.81,23.55,49.54,47.18,73.9,71.18,10.72,10.56,20.59,22,30.44,33.39,1.45,1.68,1.76,5.89.7,8-12.58,24.42-30.44,44.51-51.88,61.48C1139.64,917.31,1132.87,921.83,1124.7,927.73Z" transform="translate(-293.62 -464.83)"/></svg>