<?xml version="1.0" encoding="UTF-8"?>
<svg version="1.1" xmlns="http://www.w3.org/2000/svg" width="512" height="512">
<path d="M0 0 C1.01790619 0.00215515 2.03581238 0.0043103 3.08456421 0.00653076 C17.69363523 0.05620146 32.02575853 0.30709809 46.375 3.3125 C47.34985352 3.51117676 48.32470703 3.70985352 49.32910156 3.91455078 C97.7109774 14.03517194 141.69928269 35.9516877 177.375 70.3125 C178.3640332 71.26068604 178.3640332 71.26068604 179.37304688 72.22802734 C188.86130305 81.37247479 197.6012044 90.66984009 205.375 101.3125 C206.23306152 102.46355017 207.09113451 103.61459177 207.94921875 104.765625 C213.98736829 112.95680614 219.34595521 121.47054105 224.375 130.3125 C224.73948242 130.94430176 225.10396484 131.57610352 225.47949219 132.22705078 C247.08534998 169.97532572 256.85198095 212.74189997 256.6875 255.9375 C256.68534485 256.95540619 256.6831897 257.97331238 256.68096924 259.02206421 C256.63129854 273.63113523 256.38040191 287.96325853 253.375 302.3125 C253.07698486 303.77478027 253.07698486 303.77478027 252.77294922 305.26660156 C242.65232806 353.6484774 220.7358123 397.63678269 186.375 433.3125 C185.74287598 433.97185547 185.11075195 434.63121094 184.45947266 435.31054688 C175.31502521 444.79880305 166.01765991 453.5387044 155.375 461.3125 C154.22394983 462.17056152 153.07290823 463.02863451 151.921875 463.88671875 C143.73224019 469.92427396 135.22961724 475.30707302 126.375 480.3125 C125.66778809 480.7146875 124.96057617 481.116875 124.23193359 481.53125 C101.09654164 494.5566741 75.92537591 503.30551461 49.9375 508.625 C49.21860596 508.77235596 48.49971191 508.91971191 47.7590332 509.0715332 C33.08339502 511.86090125 18.55831162 512.66142619 3.64770508 512.62817383 C0.70811513 512.6250221 -2.2304558 512.64854926 -5.16992188 512.67382812 C-18.54306192 512.71848737 -31.43916711 511.51301542 -44.625 509.3125 C-46.33055054 509.03031616 -46.33055054 509.03031616 -48.07055664 508.74243164 C-91.33802759 500.97044532 -132.38793216 480.98345309 -165.625 452.3125 C-166.37007813 451.67828125 -167.11515625 451.0440625 -167.8828125 450.390625 C-181.38779833 438.57948485 -194.05918743 425.82889772 -204.625 411.3125 C-205.48149066 410.16255169 -206.33826433 409.01281411 -207.1953125 407.86328125 C-213.23534209 399.67315742 -218.61867614 391.16870382 -223.625 382.3125 C-224.0271875 381.60528809 -224.429375 380.89807617 -224.84375 380.16943359 C-237.8691741 357.03404164 -246.61801461 331.86287591 -251.9375 305.875 C-252.08485596 305.15610596 -252.23221191 304.43721191 -252.3840332 303.6965332 C-255.35789088 288.05024391 -255.99800362 272.57681954 -255.9375 256.6875 C-255.93534485 255.66959381 -255.9331897 254.65168762 -255.93096924 253.60293579 C-255.88129854 238.99386477 -255.63040191 224.66174147 -252.625 210.3125 C-252.42632324 209.33764648 -252.22764648 208.36279297 -252.02294922 207.35839844 C-241.90232806 158.9765226 -219.9858123 114.98821731 -185.625 79.3125 C-184.99287598 78.65314453 -184.36075195 77.99378906 -183.70947266 77.31445312 C-174.56502521 67.82619695 -165.26765991 59.0862956 -154.625 51.3125 C-153.47394983 50.45443848 -152.32290823 49.59636549 -151.171875 48.73828125 C-142.98224019 42.70072604 -134.47961724 37.31792698 -125.625 32.3125 C-124.91778809 31.9103125 -124.21057617 31.508125 -123.48193359 31.09375 C-100.34654164 18.0683259 -75.17537591 9.31948539 -49.1875 4 C-48.46860596 3.85264404 -47.74971191 3.70528809 -47.0090332 3.5534668 C-31.36274391 0.57960912 -15.88931954 -0.06050362 0 0 Z " fill="#5A4EF6" transform="translate(255.625,-0.3125)"/>
<path d="M0 0 C6.74589829 5.24252667 10.96893697 12.81921326 12.23220062 21.24050903 C12.4527549 25.48565278 12.48843335 29.6925649 12.45214844 33.94140625 C12.46029674 35.55916758 12.47098992 37.17691775 12.48400879 38.79464722 C12.51116914 43.15438953 12.50083778 47.51327206 12.48173428 51.8730278 C12.46644322 56.45581977 12.48065923 61.03854274 12.49005127 65.62133789 C12.50093821 73.3144235 12.48665797 81.00716245 12.45800781 88.70019531 C12.42535948 97.56868684 12.43593855 106.43635048 12.46896625 115.30482197 C12.49627714 122.94687341 12.49999601 130.588677 12.48433423 138.23076153 C12.47502536 142.78289529 12.47360681 147.33464111 12.49355316 151.88674927 C12.51100756 156.16850263 12.49864462 160.44919853 12.46418762 164.73083878 C12.45631837 166.29319639 12.45842147 167.85564448 12.47176361 169.41796494 C12.55557423 180.23725344 11.08680937 189.3441709 3.72861862 197.75767517 C-2.53702625 203.92161997 -11.72459719 207.58918177 -20.51171875 207.78125 C-33.42979534 207.56947825 -41.71304962 199.37381717 -50.57421875 190.90625 C-51.31003174 190.20910889 -52.04584473 189.51196777 -52.80395508 188.79370117 C-58.20707245 183.65406443 -63.49881593 178.41483871 -68.7109375 173.08203125 C-69.57332031 172.24027344 -70.43570313 171.39851562 -71.32421875 170.53125 C-72.15824219 169.60699219 -72.99226563 168.68273437 -73.8515625 167.73046875 C-78.45055943 163.98332897 -84.58557091 164.96847389 -90.19921875 165.03125 C-101.21167271 164.88654259 -110.18500004 163.94012828 -120.32421875 159.53125 C-121.3090625 159.10972656 -122.29390625 158.68820312 -123.30859375 158.25390625 C-139.41855563 150.40371296 -149.96178303 135.8947029 -156.32421875 119.53125 C-161.11938986 104.91630263 -159.34427201 86.94281895 -152.63671875 73.34375 C-149.46627038 67.22276461 -146.05646632 61.5881632 -141.32421875 56.53125 C-140.63199219 55.78617188 -139.93976563 55.04109375 -139.2265625 54.2734375 C-134.44625119 49.56495057 -129.38482151 46.18730135 -123.44921875 43.15625 C-122.8260376 42.83454834 -122.20285645 42.51284668 -121.56079102 42.18139648 C-112.5394043 37.83333865 -103.79165629 36.27259716 -93.83618164 36.67626953 C-84.72511974 36.96949284 -77.42198301 36.89501485 -70.35644531 30.65917969 C-67.76780001 28.02689832 -65.31876353 25.31872661 -62.96142578 22.47753906 C-60.5842828 19.65162439 -57.96627383 17.10616147 -55.32421875 14.53125 C-54.46570313 13.66371094 -53.6071875 12.79617187 -52.72265625 11.90234375 C-49.39247629 8.61013001 -45.91064097 5.53921702 -42.32421875 2.53125 C-41.08671875 1.4484375 -41.08671875 1.4484375 -39.82421875 0.34375 C-26.91082129 -9.01846315 -13.40009913 -8.4679618 0 0 Z " fill="#FCFCFE" transform="translate(297.32421875,155.46875)"/>
<path d="M0 0 C3.58552881 1.63687185 4.79315055 2.68972583 7 6 C7.26006222 8.82272148 7.26006222 8.82272148 7.27415466 12.32540894 C7.28200968 13.29176401 7.28200968 13.29176401 7.29002339 14.27764142 C7.30504643 16.44020235 7.30572903 18.60252715 7.30639648 20.76513672 C7.31401643 22.31410116 7.32244364 23.86306181 7.33161926 25.41201782 C7.35358726 29.62279267 7.36236621 33.8334949 7.36744571 38.04432058 C7.37108651 40.67445458 7.37732511 43.30456947 7.3844471 45.9346962 C7.4089494 55.10865364 7.42199522 64.28255448 7.42553711 73.45654297 C7.42917321 82.01073484 7.45907175 90.56456808 7.50094169 99.11865032 C7.53561981 106.46056662 7.55108512 113.80236394 7.55178314 121.14436162 C7.5525768 125.53042089 7.56135569 129.91611496 7.58978081 134.30208969 C7.61591934 138.42757241 7.61819072 142.55238608 7.60212517 146.67791367 C7.60030729 148.19163469 7.60703206 149.70539381 7.62294388 151.21903229 C7.64335703 153.2870234 7.63288582 155.35266299 7.61473083 157.42062378 C7.61674216 158.57726469 7.61875349 159.7339056 7.62082577 160.92559624 C6.81091651 164.93636418 5.09889448 166.42261236 2 169 C-1.30406258 170.65203129 -4.45537791 170.76119498 -8 170 C-9.8828125 168.69458008 -9.8828125 168.69458008 -11.75 166.95703125 C-12.44303223 166.32039551 -13.13606445 165.68375977 -13.85009766 165.02783203 C-14.91429932 164.02405518 -14.91429932 164.02405518 -16 163 C-16.68497559 162.36819824 -17.36995117 161.73639648 -18.07568359 161.08544922 C-20.18745339 159.13187561 -22.28322298 157.16245541 -24.375 155.1875 C-25.11379395 154.49188965 -25.85258789 153.7962793 -26.61376953 153.07958984 C-31.54694719 148.4186173 -36.38425716 143.68517121 -41.1171875 138.8203125 C-43.06885539 136.82442814 -43.06885539 136.82442814 -46 135 C-46.3390921 131.85006849 -46.48225478 128.89274038 -46.49926758 125.73608398 C-46.51576859 124.77489151 -46.53226959 123.81369904 -46.54927063 122.82337952 C-46.5983382 119.63090482 -46.62353439 116.43887018 -46.64453125 113.24609375 C-46.65912667 111.61081065 -46.65912667 111.61081065 -46.67401695 109.94249153 C-46.72491386 104.16794982 -46.75763911 98.39363104 -46.77563477 92.61889648 C-46.79762588 86.66173674 -46.8799813 80.70704839 -46.97675037 74.75070095 C-47.04028682 70.16514541 -47.05894153 65.58017702 -47.065588 60.99421883 C-47.07648954 58.79934095 -47.10410601 56.60447812 -47.14899635 54.41003227 C-47.47662503 37.22649829 -47.47662503 37.22649829 -43.82495117 31.72039795 C-41.32408824 29.45409091 -38.87852245 27.74297098 -36 26 C-34.78630395 24.8768137 -33.59808514 23.72406268 -32.4609375 22.5234375 C-31.94740723 22.00144775 -31.43387695 21.47945801 -30.90478516 20.94165039 C-30.39995605 20.42465576 -29.89512695 19.90766113 -29.375 19.375 C-25.29983388 15.25267037 -21.20753575 11.22361778 -16.7578125 7.5 C-14.95847062 6.00337959 -14.95847062 6.00337959 -13.2421875 4.25 C-8.7943709 -0.05819904 -6.19213248 -0.89885794 0 0 Z " fill="#5A4EF6" transform="translate(281,171)"/>
<path d="M0 0 C0 27.72 0 55.44 0 84 C-28.41737288 84 -28.41737288 84 -41.94140625 71.15625 C-48.21838645 64.54033999 -52.52450874 56.19283103 -53 47 C-53.061875 46.03320312 -53.12375 45.06640625 -53.1875 44.0703125 C-53.62375465 32.48229837 -50.39136114 22.97169671 -43 14 C-29.89989325 0.09528017 -19.44957658 0 0 0 Z " fill="#5A4EF6" transform="translate(213,214)"/>
<path d="M0 0 C10.23997029 5.8423067 16.70484177 20.12597786 20 31 C25.51588852 51.6370312 22.36150441 72.82618925 11.83984375 91.17578125 C5.65230769 100.67384615 5.65230769 100.67384615 1 103 C-6.08958838 103.5811138 -6.08958838 103.5811138 -9.9375 101.125 C-13.1321134 97.83358013 -13.51722157 95.21864081 -13.48046875 90.6171875 C-12.703621 86.38557782 -10.29899762 83.39208276 -7.88671875 79.8984375 C-3.39741641 73.0018281 -0.24649162 65.27921854 0 57 C0.11021484 55.47826172 0.11021484 55.47826172 0.22265625 53.92578125 C0.8074649 40.53516264 -3.17278647 29.44184692 -11.05249023 18.83007812 C-13.96443602 14.76603875 -14.56196112 11.9511732 -14 7 C-10.54310297 1.44427263 -6.60294461 -1.14281734 0 0 Z " fill="#FCFCFE" transform="translate(351,204)"/>
<path d="M0 0 C7.4829204 3.67116136 11.05873666 12.37621894 13.64453125 19.8671875 C15.7120988 32.2725928 14.42248044 45.16349187 7 55.5625 C4.93495116 58.17186878 2.81385281 60.20596861 0 62 C-4.787821 62.53198011 -6.86402545 62.72509014 -10.9375 60.125 C-14.28469926 56.67637046 -14.3857413 54.09844835 -14.36328125 49.44921875 C-13.84339204 45.94415926 -12.2645502 43.64156822 -10.19140625 40.82421875 C-7.4894396 36.68710916 -7.50403938 31.80298704 -8 27 C-8.98186412 23.26214485 -10.13360265 19.99475251 -12.6875 17.0625 C-14.87835216 13.61973232 -14.65465097 9.94902361 -14 6 C-10.4428954 0.30863264 -6.62730478 -1.19074986 0 0 Z " fill="#FCFCFE" transform="translate(327,225)"/>
</svg>
