<?xml version="1.0" encoding="UTF-8"?>
<svg version="1.1" xmlns="http://www.w3.org/2000/svg" width="285" height="286">
<path d="M0 0 C10.89 0 21.78 0 33 0 C33 0.66 33 1.32 33 2 C34.98 2 36.96 2 39 2 C39 2.66 39 3.32 39 4 C40.32 4 41.64 4 43 4 C43 4.66 43 5.32 43 6 C44.32 6 45.64 6 47 6 C47 6.66 47 7.32 47 8 C48.32 8 49.64 8 51 8 C51 8.66 51 9.32 51 10 C51.66 10 52.32 10 53 10 C53 10.66 53 11.32 53 12 C53.66 12 54.32 12 55 12 C55 12.99 55 13.98 55 15 C56.98 15.33 58.96 15.66 61 16 C61 16.66 61 17.32 61 18 C61.66 18 62.32 18 63 18 C64.04644066 19.63790712 65.0398183 21.31008021 66 23 C66.556875 23.70125 67.11375 24.4025 67.6875 25.125 C69 27 69 27 69 30 C69.66 30 70.32 30 71 30 C71 31.32 71 32.64 71 34 C71.66 34 72.32 34 73 34 C73 35.98 73 37.96 73 40 C73.66 40 74.32 40 75 40 C75 41.65 75 43.3 75 45 C77.64 45.33 80.28 45.66 83 46 C83 46.66 83 47.32 83 48 C84.32 48 85.64 48 87 48 C87 48.66 87 49.32 87 50 C88.32 50 89.64 50 91 50 C91 50.66 91 51.32 91 52 C91.66 52 92.32 52 93 52 C93 52.66 93 53.32 93 54 C94.65 54 96.3 54 98 54 C98 55.32 98 56.64 98 58 C99.32 58.33 100.64 58.66 102 59 C102 59.99 102 60.98 102 62 C102.99 62 103.98 62 105 62 C105 62.66 105 63.32 105 64 C105.66 64 106.32 64 107 64 C107 64.66 107 65.32 107 66 C107.66 66 108.32 66 109 66 C109 66.66 109 67.32 109 68 C109.66 68 110.32 68 111 68 C111 69.32 111 70.64 111 72 C111.66 72 112.32 72 113 72 C114.25664978 74.90600261 115 76.79604584 115 80 C115.66 80 116.32 80 117 80 C117 81.98 117 83.96 117 86 C117.66 86 118.32 86 119 86 C119 89.3 119 92.6 119 96 C119.66 96 120.32 96 121 96 C121.19644384 97.89492746 121.38177288 99.79100903 121.5625 101.6875 C121.66691406 102.74324219 121.77132812 103.79898438 121.87890625 104.88671875 C121.99277552 107.81426086 121.70848415 110.17131144 121 113 C120.34 113 119.68 113 119 113 C119.33 115.97 119.66 118.94 120 122 C119.01 122.495 119.01 122.495 118 123 C117.16007109 125.20992266 117.16007109 125.20992266 116.5 127.8125 C115.60792755 131.09474484 114.62019789 134.00403062 113 137 C112.01 137 111.02 137 110 137 C110 138.65 110 140.3 110 142 C109.01 142 108.02 142 107 142 C107 142.99 107 143.98 107 145 C106.01 145 105.02 145 104 145 C104 145.99 104 146.98 104 148 C102.68 148.33 101.36 148.66 100 149 C100 149.99 100 150.98 100 152 C95.77777778 155 95.77777778 155 93 155 C93 155.66 93 156.32 93 157 C91.68 157 90.36 157 89 157 C89 157.66 89 158.32 89 159 C87.04350603 159.83764268 85.08474444 160.66999059 83.125 161.5 C82.03445312 161.9640625 80.94390625 162.428125 79.8203125 162.90625 C77 164 77 164 75 164 C75 164.99 75 165.98 75 167 C74.34 167 73.68 167 73 167 C73.0309375 168.3921875 73.0309375 168.3921875 73.0625 169.8125 C73 173 73 173 72 176 C71.01 176 70.02 176 69 176 C68.67 177.98 68.34 179.96 68 182 C67.01 182 66.02 182 65 182 C65.33 183.32 65.66 184.64 66 186 C65.01 186.33 64.02 186.66 63 187 C61.79117904 189.00016466 61.79117904 189.00016466 61 191 C60.34 191 59.68 191 59 191 C59 191.66 59 192.32 59 193 C58.34 193 57.68 193 57 193 C57 193.66 57 194.32 57 195 C56.01 195.33 55.02 195.66 54 196 C53.67 196.66 53.34 197.32 53 198 C52.01 198 51.02 198 50 198 C50 198.66 50 199.32 50 200 C48.68 200 47.36 200 46 200 C45.34 201.32 44.68 202.64 44 204 C42.02 203.67 40.04 203.34 38 203 C38 203.99 38 204.98 38 206 C34.98509443 207.00496852 32.95818308 207.10335303 29.8125 207.0625 C28.91144531 207.05347656 28.01039063 207.04445312 27.08203125 207.03515625 C26.05142578 207.01775391 26.05142578 207.01775391 25 207 C25 207.66 25 208.32 25 209 C15.75845174 209.20871753 7.0599788 209.14982548 -2 207 C-2 206.34 -2 205.68 -2 205 C-3.093125 205.04125 -4.18625 205.0825 -5.3125 205.125 C-9 205 -9 205 -12 203 C-12 202.34 -12 201.68 -12 201 C-12.721875 201.0825 -13.44375 201.165 -14.1875 201.25 C-18.96699112 200.82515634 -21.80796792 197.33712445 -25 194 C-25.556875 193.484375 -26.11375 192.96875 -26.6875 192.4375 C-28 191 -28 191 -28 189 C-28.66 189 -29.32 189 -30 189 C-30 188.34 -30 187.68 -30 187 C-30.66 187 -31.32 187 -32 187 C-32 186.34 -32 185.68 -32 185 C-33.32 184.34 -34.64 183.68 -36 183 C-36 181.68 -36 180.36 -36 179 C-36.99 178.67 -37.98 178.34 -39 178 C-40.16796875 175.6015625 -40.16796875 175.6015625 -41.1875 172.625 C-41.53167969 171.64789063 -41.87585938 170.67078125 -42.23046875 169.6640625 C-43 167 -43 167 -43 164 C-43.62648437 163.87882813 -44.25296875 163.75765625 -44.8984375 163.6328125 C-45.71570313 163.46523437 -46.53296875 163.29765625 -47.375 163.125 C-48.59316406 162.88136719 -48.59316406 162.88136719 -49.8359375 162.6328125 C-52 162 -52 162 -54 160 C-54.70125 159.9175 -55.4025 159.835 -56.125 159.75 C-61.68257102 158.30019886 -66.05132071 154.04822582 -70 150 C-70.721875 149.34 -71.44375 148.68 -72.1875 148 C-74 146 -74 146 -74 143 C-74.66 143 -75.32 143 -76 143 C-76 142.34 -76 141.68 -76 141 C-76.66 141 -77.32 141 -78 141 C-78 140.34 -78 139.68 -78 139 C-78.66 139 -79.32 139 -80 139 C-86.88838269 127.66287016 -86.88838269 127.66287016 -86 121 C-86.66 121 -87.32 121 -88 121 C-89.70715494 115.87853519 -89.18460222 110.48590178 -89.1875 105.125 C-89.19974609 103.94035156 -89.21199219 102.75570312 -89.22460938 101.53515625 C-89.22654297 100.39175781 -89.22847656 99.24835938 -89.23046875 98.0703125 C-89.23457764 97.02633301 -89.23868652 95.98235352 -89.24291992 94.90673828 C-88.99023815 91.88319137 -88.22885041 89.75400689 -87 87 C-86.63128912 85.34080104 -86.28718326 83.6752357 -86 82 C-85.34 82 -84.68 82 -84 82 C-84 80.02 -84 78.04 -84 76 C-82.02 75.505 -82.02 75.505 -80 75 C-80 73.35 -80 71.7 -80 70 C-79.34 70 -78.68 70 -78 70 C-78 68.68 -78 67.36 -78 66 C-77.34 66 -76.68 66 -76 66 C-76 65.34 -76 64.68 -76 64 C-74.125 61.875 -74.125 61.875 -72 60 C-71.34 60 -70.68 60 -70 60 C-70 59.34 -70 58.68 -70 58 C-69.34 58 -68.68 58 -68 58 C-68 57.34 -68 56.68 -68 56 C-67.34 56 -66.68 56 -66 56 C-66 55.34 -66 54.68 -66 54 C-64.68 54 -63.36 54 -62 54 C-61.67 53.01 -61.34 52.02 -61 51 C-58.525 50.505 -58.525 50.505 -56 50 C-56 49.34 -56 48.68 -56 48 C-54.02 48 -52.04 48 -50 48 C-50 47.34 -50 46.68 -50 46 C-48.02 46 -46.04 46 -44 46 C-43.34 43.36 -42.68 40.72 -42 38 C-41.34 38 -40.68 38 -40 38 C-39.855625 36.72125 -39.71125 35.4425 -39.5625 34.125 C-39.29357254 31.74307106 -39.07773654 30.15547309 -38 28 C-37.34 28 -36.68 28 -36 28 C-36 27.34 -36 26.68 -36 26 C-35.34 26 -34.68 26 -34 26 C-34 24.68 -34 23.36 -34 22 C-33.34 22 -32.68 22 -32 22 C-32 21.34 -32 20.68 -32 20 C-31.34 20 -30.68 20 -30 20 C-30 19.34 -30 18.68 -30 18 C-29.34 18 -28.68 18 -28 18 C-28 17.34 -28 16.68 -28 16 C-27.34 16 -26.68 16 -26 16 C-26 15.34 -26 14.68 -26 14 C-25.34 14 -24.68 14 -24 14 C-24 13.34 -24 12.68 -24 12 C-23.34 12 -22.68 12 -22 12 C-22 11.34 -22 10.68 -22 10 C-20.68 10 -19.36 10 -18 10 C-18 9.34 -18 8.68 -18 8 C-17.34 8 -16.68 8 -16 8 C-16 7.34 -16 6.68 -16 6 C-14.68 6 -13.36 6 -12 6 C-12 5.34 -12 4.68 -12 4 C-10.02 4 -8.04 4 -6 4 C-6 3.34 -6 2.68 -6 2 C-4.02 2 -2.04 2 0 2 C0 1.34 0 0.68 0 0 Z M1 29 C0.34 29 -0.32 29 -1 29 C-1.33 29.66 -1.66 30.32 -2 31 C-3.98246398 32.03432904 -5.98413316 33.03238392 -8 34 C-8.99 34.66 -9.98 35.32 -11 36 C-11 37.32 -11 38.64 -11 40 C-11.99 40.33 -12.98 40.66 -14 41 C-14.33 42.65 -14.66 44.3 -15 46 C-13.02 46 -11.04 46 -9 46 C-9 46.66 -9 47.32 -9 48 C-7.68 48 -6.36 48 -5 48 C-5 48.66 -5 49.32 -5 50 C-3.68 50 -2.36 50 -1 50 C-0.67 51.32 -0.34 52.64 0 54 C1.65 54 3.3 54 5 54 C5 54.66 5 55.32 5 56 C5.66 56 6.32 56 7 56 C7 56.66 7 57.32 7 58 C7.66 58 8.32 58 9 58 C9 58.99 9 59.98 9 61 C10.32 61.33 11.64 61.66 13 62 C13 62.66 13 63.32 13 64 C13.66 64 14.32 64 15 64 C15.33 64.66 15.66 65.32 16 66 C16 65.34 16 64.68 16 64 C16.66 64 17.32 64 18 64 C18 63.34 18 62.68 18 62 C18.66 62 19.32 62 20 62 C20 61.34 20 60.68 20 60 C20.66 60 21.32 60 22 60 C22 59.34 22 58.68 22 58 C22.66 58 23.32 58 24 58 C24 57.34 24 56.68 24 56 C24.66 56 25.32 56 26 56 C26 55.34 26 54.68 26 54 C27.32 54 28.64 54 30 54 C30 53.34 30 52.68 30 52 C30.66 52 31.32 52 32 52 C32 51.34 32 50.68 32 50 C33.32 50 34.64 50 36 50 C36 49.34 36 48.68 36 48 C36.62648437 47.93941406 37.25296875 47.87882812 37.8984375 47.81640625 C38.71570313 47.73261719 39.53296875 47.64882812 40.375 47.5625 C41.18710938 47.48128906 41.99921875 47.40007812 42.8359375 47.31640625 C45.04272805 47.10909886 45.04272805 47.10909886 47 46 C46.48695866 42.20349406 45.84277003 40.52690669 43 38 C42.34 37.113125 41.68 36.22625 41 35.3125 C40.34 34.549375 39.68 33.78625 39 33 C38.01 33 37.02 33 36 33 C35.71125 32.360625 35.4225 31.72125 35.125 31.0625 C34.17176549 28.84793921 34.17176549 28.84793921 32 28 C30.62657169 27.9310528 29.24997898 27.91532292 27.875 27.9375 C25.956875 27.9684375 25.956875 27.9684375 24 28 C23.505 26.515 23.505 26.515 23 25 C11.16509293 24.16369041 11.16509293 24.16369041 1 29 Z M-45 73 C-45 73.66 -45 74.32 -45 75 C-46.32 75 -47.64 75 -49 75 C-49 75.66 -49 76.32 -49 77 C-49.66 77 -50.32 77 -51 77 C-51 77.66 -51 78.32 -51 79 C-51.66 79 -52.32 79 -53 79 C-53 79.66 -53 80.32 -53 81 C-53.66 81 -54.32 81 -55 81 C-55.97251196 82.71027966 -56.94460834 84.4207977 -57.9140625 86.1328125 C-58.78989462 87.63873967 -59.72936362 89.10755216 -60.6875 90.5625 C-63.26999198 95.35855654 -63.1170179 100.53224616 -63.0625 105.875 C-63.05347656 107.02742188 -63.04445313 108.17984375 -63.03515625 109.3671875 C-63.02355469 110.23601562 -63.01195313 111.10484375 -63 112 C-62.34 112 -61.68 112 -61 112 C-61 113.98 -61 115.96 -61 118 C-60.34 118 -59.68 118 -59 118 C-58.87625 118.804375 -58.7525 119.60875 -58.625 120.4375 C-58.41875 121.283125 -58.2125 122.12875 -58 123 C-57.34 123.33 -56.68 123.66 -56 124 C-55.375 126.0625 -55.375 126.0625 -55 128 C-54.34 128 -53.68 128 -53 128 C-53 128.66 -53 129.32 -53 130 C-52.34 130 -51.68 130 -51 130 C-51 130.66 -51 131.32 -51 132 C-49.68 132 -48.36 132 -47 132 C-47 132.99 -47 133.98 -47 135 C-45.35 135.33 -43.7 135.66 -42 136 C-40.40861915 131.82262526 -39.78721942 128.46839215 -40 124 C-39.34 124 -38.68 124 -38 124 C-38 122.68 -38 121.36 -38 120 C-37.34 120 -36.68 120 -36 120 C-36 119.34 -36 118.68 -36 118 C-35.34 118 -34.68 118 -34 118 C-34 116.68 -34 115.36 -34 114 C-33.34 114 -32.68 114 -32 114 C-32 113.34 -32 112.68 -32 112 C-31.34 112 -30.68 112 -30 112 C-30 111.34 -30 110.68 -30 110 C-29.34 110 -28.68 110 -28 110 C-28 109.34 -28 108.68 -28 108 C-27.01 108 -26.02 108 -25 108 C-22.78181673 105.33043698 -22.78181673 105.33043698 -23.125 103.0625 C-24.26358428 100.37869419 -25.7902201 98.87496477 -28 97 C-28.66 97 -29.32 97 -30 97 C-30 96.34 -30 95.68 -30 95 C-30.66 95 -31.32 95 -32 95 C-32 94.34 -32 93.68 -32 93 C-32.66 93 -33.32 93 -34 93 C-34 92.34 -34 91.68 -34 91 C-34.66 91 -35.32 91 -36 91 C-36.0825 90.319375 -36.165 89.63875 -36.25 88.9375 C-37.04431795 85.82642136 -38.42552828 83.51162719 -40.078125 80.78125 C-41.37926062 78.26719135 -41.7273599 75.79456107 -42 73 C-42.99 73 -43.98 73 -45 73 Z M75 73 C71.47765926 79.10634401 71.47765926 79.10634401 71 86 C70.34 86 69.68 86 69 86 C69 87.32 69 88.64 69 90 C67.68 90.33 66.36 90.66 65 91 C65 92.32 65 93.64 65 95 C64.34 95 63.68 95 63 95 C63 95.66 63 96.32 63 97 C62.38125 97.12375 61.7625 97.2475 61.125 97.375 C58.80879168 97.87197356 58.80879168 97.87197356 57 100 C57 100.99 57 101.98 57 103 C56.34 103.33 55.68 103.66 55 104 C55.66 104 56.32 104 57 104 C57 104.66 57 105.32 57 106 C57.66 106 58.32 106 59 106 C59 106.66 59 107.32 59 108 C59.66 108 60.32 108 61 108 C61 108.66 61 109.32 61 110 C61.66 110 62.32 110 63 110 C63.1546875 111.1446875 63.1546875 111.1446875 63.3125 112.3125 C64.04711194 115.18416484 64.6716065 116.23042094 67 118 C67.66 118 68.32 118 69 118 C69 119.32 69 120.64 69 122 C69.66 122 70.32 122 71 122 C71 123.32 71 124.64 71 126 C71.66 126 72.32 126 73 126 C73 127.98 73 129.96 73 132 C73.66 132 74.32 132 75 132 C75.33 133.32 75.66 134.64 76 136 C76 135.34 76 134.68 76 134 C76.66 134 77.32 134 78 134 C78 133.34 78 132.68 78 132 C78.91136719 131.94328125 79.82273438 131.8865625 80.76171875 131.828125 C84.13296325 131.28628181 84.13296325 131.28628181 86.08203125 128.671875 C86.65308594 127.70765625 87.22414062 126.7434375 87.8125 125.75 C88.39644531 124.79609375 88.98039062 123.8421875 89.58203125 122.859375 C90.91961866 120.16209129 91.43481775 117.92442924 92 115 C92.66 114.67 93.32 114.34 94 114 C94.08774066 110.79184155 94.14063706 107.58399538 94.1875 104.375 C94.21263672 103.47136719 94.23777344 102.56773437 94.26367188 101.63671875 C94.32268242 96.24708919 93.88292931 92.72016134 91 88 C90.505 86.515 90.505 86.515 90 85 C89.34 85 88.68 85 88 85 C88 84.34 88 83.68 88 83 C87.34 83 86.68 83 86 83 C86 82.34 86 81.68 86 81 C85.34 81 84.68 81 84 81 C84 80.34 84 79.68 84 79 C83.34 79 82.68 79 82 79 C82 78.34 82 77.68 82 77 C81.01 77 80.02 77 79 77 C78.67 76.01 78.34 75.02 78 74 C77.01 73.67 76.02 73.34 75 73 Z M43 76 C43.33 76.66 43.66 77.32 44 78 C44.33 77.34 44.66 76.68 45 76 C44.34 76 43.68 76 43 76 Z M41 78 C42 80 42 80 42 80 Z M-9 79 C-9 79.99 -9 80.98 -9 82 C-8.01 82 -7.02 82 -6 82 C-6 81.01 -6 80.02 -6 79 C-6.99 79 -7.98 79 -9 79 Z M35 123 C35.33 124.65 35.66 126.3 36 128 C36.99 128 37.98 128 39 128 C39.33 129.32 39.66 130.64 40 132 C41.32 132 42.64 132 44 132 C44 131.34 44 130.68 44 130 C43.34 130 42.68 130 42 130 C41.731875 129.401875 41.46375 128.80375 41.1875 128.1875 C40.00082594 126.00152146 38.90400887 124.58667406 37 123 C36.34 123 35.68 123 35 123 Z M-9 126 C-9 126.99 -9 127.98 -9 129 C-9.99 129.33 -10.98 129.66 -12 130 C-12.33 130.99 -12.66 131.98 -13 133 C-12.01 132.67 -11.02 132.34 -10 132 C-10 131.34 -10 130.68 -10 130 C-9.34 130 -8.68 130 -8 130 C-8 129.34 -8 128.68 -8 128 C-7.34 128 -6.68 128 -6 128 C-6 127.34 -6 126.68 -6 126 C-5.34 126 -4.68 126 -4 126 C-4 125.34 -4 124.68 -4 124 C-6.32357511 123.81509993 -6.32357511 123.81509993 -9 126 Z M15 143 C15 143.66 15 144.32 15 145 C14.34 145 13.68 145 13 145 C13 145.66 13 146.32 13 147 C12.34 147 11.68 147 11 147 C11 147.66 11 148.32 11 149 C10.34 149 9.68 149 9 149 C9 149.66 9 150.32 9 151 C8.34 151 7.68 151 7 151 C7 151.66 7 152.32 7 153 C6.278125 152.9175 5.55625 152.835 4.8125 152.75 C1.12889581 153.07743148 -0.38626111 154.46093936 -3 157 C-3 157.66 -3 158.32 -3 159 C-3.63808594 159.10957031 -4.27617188 159.21914062 -4.93359375 159.33203125 C-5.75988281 159.49058594 -6.58617188 159.64914063 -7.4375 159.8125 C-8.26121094 159.96332031 -9.08492188 160.11414063 -9.93359375 160.26953125 C-10.61550781 160.51058594 -11.29742187 160.75164062 -12 161 C-12.33 161.99 -12.66 162.98 -13 164 C-13.66 164 -14.32 164 -15 164 C-15 164.66 -15 165.32 -15 166 C-14.34 166 -13.68 166 -13 166 C-13 166.66 -13 167.32 -13 168 C-12.34 168 -11.68 168 -11 168 C-11 168.66 -11 169.32 -11 170 C-10.34 170 -9.68 170 -9 170 C-9 170.66 -9 171.32 -9 172 C-8.34 172 -7.68 172 -7 172 C-7 172.66 -7 173.32 -7 174 C-6.34 174 -5.68 174 -5 174 C-5 174.66 -5 175.32 -5 176 C-4.34 176 -3.68 176 -3 176 C-3 176.66 -3 177.32 -3 178 C-1.68 178 -0.36 178 1 178 C1 178.66 1 179.32 1 180 C2.32 180 3.64 180 5 180 C5 180.66 5 181.32 5 182 C11.93 182 18.86 182 26 182 C26 181.34 26 180.68 26 180 C28.31 179.67 30.62 179.34 33 179 C33.33 178.01 33.66 177.02 34 176 C35.32 176 36.64 176 38 176 C38 175.34 38 174.68 38 174 C38.66 174 39.32 174 40 174 C40 173.34 40 172.68 40 172 C40.66 172 41.32 172 42 172 C42 171.34 42 170.68 42 170 C42.66 170 43.32 170 44 170 C44 168.68 44 167.36 44 166 C44.66 166 45.32 166 46 166 C46 165.34 46 164.68 46 164 C46.66 163.67 47.32 163.34 48 163 C44.5980513 160.90649311 41.94727588 160.82057837 38 161 C38 160.34 38 159.68 38 159 C37.401875 158.896875 36.80375 158.79375 36.1875 158.6875 C33.66608978 157.89505679 32.80534232 156.88056492 31 155 C29.948125 154.4740625 29.948125 154.4740625 28.875 153.9375 C27 153 27 153 26 151 C24.68 151 23.36 151 22 151 C22 150.34 22 149.68 22 149 C21.34 149 20.68 149 20 149 C20 148.34 20 147.68 20 147 C18.37373596 145.61767557 16.7074998 144.28062485 15 143 Z " fill="#1D1D1F" transform="translate(126,31)"/>
<path d="M0 0 C10.89 0 21.78 0 33 0 C33 0.66 33 1.32 33 2 C34.98 2 36.96 2 39 2 C39 2.66 39 3.32 39 4 C38.34 4 37.68 4 37 4 C37 4.66 37 5.32 37 6 C34.625 5.6875 34.625 5.6875 32 5 C31.34 4.01 30.68 3.02 30 2 C27.14042253 1.54899176 27.14042253 1.54899176 23.78515625 1.63671875 C21.92020508 1.63768555 21.92020508 1.63768555 20.01757812 1.63867188 C18.71240234 1.65478516 17.40722656 1.67089844 16.0625 1.6875 C14.76119141 1.68427734 13.45988281 1.68105469 12.11914062 1.67773438 C5.17234652 1.41952584 5.17234652 1.41952584 -1 4 C-1.33 3.34 -1.66 2.68 -2 2 C-1.34 2 -0.68 2 0 2 C0 1.34 0 0.68 0 0 Z " fill="#171619" transform="translate(126,31)"/>
<path d="M0 0 C0.66 0.33 1.32 0.66 2 1 C0.35 1.66 -1.3 2.32 -3 3 C-3 3.66 -3 4.32 -3 5 C-4.32 5 -5.64 5 -7 5 C-7 5.66 -7 6.32 -7 7 C-8.95649397 7.83764268 -10.91525556 8.66999059 -12.875 9.5 C-13.96554688 9.9640625 -15.05609375 10.428125 -16.1796875 10.90625 C-19 12 -19 12 -21 12 C-21 12.99 -21 13.98 -21 15 C-21.66 15 -22.32 15 -23 15 C-23 16.98 -23 18.96 -23 21 C-23.66 21 -24.32 21 -25 21 C-24.67 18.36 -24.34 15.72 -24 13 C-23.34 13 -22.68 13 -22 13 C-21.67 11.68 -21.34 10.36 -21 9 C-20.29875 8.84144531 -19.5975 8.68289062 -18.875 8.51953125 C-12.39879834 6.9268784 -7.45135189 4.79818503 -2 1 C-1.34 0.67 -0.68 0.34 0 0 Z " fill="#0B0B0C" transform="translate(222,183)"/>
<path d="M0 0 C0.66 0 1.32 0 2 0 C1.83628906 1.0828125 1.67257813 2.165625 1.50390625 3.28125 C0.82821976 8.68674192 0.8911014 14.06065617 0.9375 19.5 C0.94201172 20.51320312 0.94652344 21.52640625 0.95117188 22.5703125 C0.96285407 25.04693827 0.97923418 27.52343657 1 30 C0.34 30 -0.32 30 -1 30 C-1.02902996 25.75001434 -1.04680887 21.50005419 -1.0625 17.25 C-1.07087891 16.0434375 -1.07925781 14.836875 -1.08789062 13.59375 C-1.09111328 12.43359375 -1.09433594 11.2734375 -1.09765625 10.078125 C-1.10289307 9.00981445 -1.10812988 7.94150391 -1.11352539 6.84082031 C-1.01503008 4.37610765 -0.71565464 2.34754533 0 0 Z " fill="#101011" transform="translate(38,119)"/>
<path d="M0 0 C0.66 0 1.32 0 2 0 C2 1.32 2 2.64 2 4 C1.34 4 0.68 4 0 4 C0.33 6.97 0.66 9.94 1 13 C0.01 13.495 0.01 13.495 -1 14 C-1.83992891 16.20992266 -1.83992891 16.20992266 -2.5 18.8125 C-3.39207245 22.09474484 -4.37980211 25.00403062 -6 28 C-6.99 27.67 -7.98 27.34 -9 27 C-8.54882812 26.29617187 -8.09765625 25.59234375 -7.6328125 24.8671875 C-3.82402849 18.17903568 -1.81046482 10.61836931 -1 3 C-0.67 2.01 -0.34 1.02 0 0 Z " fill="#0B0B0C" transform="translate(245,140)"/>
<path d="M0 0 C0.99 0 1.98 0 3 0 C3 1.32 3 2.64 3 4 C2.34 4 1.68 4 1 4 C0.731875 4.598125 0.46375 5.19625 0.1875 5.8125 C-1.47370091 8.87260694 -2.81204519 10.62664277 -6.1875 11.6875 C-6.785625 11.790625 -7.38375 11.89375 -8 12 C-8.33 10.35 -8.66 8.7 -9 7 C-8.071875 6.5875 -7.14375 6.175 -6.1875 5.75 C-3.0502234 4.02757363 -2.02814629 2.80077345 0 0 Z M0 2 C0.33 2.66 0.66 3.32 1 4 C1.33 3.34 1.66 2.68 2 2 C1.34 2 0.68 2 0 2 Z M-2 4 C-1 6 -1 6 -1 6 Z " fill="#0E0E10" transform="translate(169,105)"/>
<path d="M0 0 C1.32 0 2.64 0 4 0 C4 0.66 4 1.32 4 2 C4.66 2 5.32 2 6 2 C8.04169485 4.90548882 9 6.40142046 9 10 C7.68 10 6.36 10 5 10 C4.67 9.34 4.34 8.68 4 8 C2.35857037 6.9590934 0.69287785 5.95495674 -1 5 C-0.67 3.35 -0.34 1.7 0 0 Z M2 3 C2 3.99 2 4.98 2 6 C2.99 6 3.98 6 5 6 C5 5.01 5 4.02 5 3 C4.01 3 3.02 3 2 3 Z " fill="#0A0A0C" transform="translate(115,107)"/>
<path d="M0 0 C4.95 0 9.9 0 15 0 C12 3 12 3 9.58203125 3.2578125 C8.21111328 3.19207031 8.21111328 3.19207031 6.8125 3.125 C2.06307567 2.98605408 -2.3065254 3.291551 -7 4 C-7.33 3.34 -7.66 2.68 -8 2 C-4.71303767 1.20046862 -3.28976808 0.90341064 0 2 C0 1.34 0 0.68 0 0 Z " fill="#121213" transform="translate(136,54)"/>
<path d="M0 0 C4.86088797 2.0832377 7.9167623 5.13911203 10 10 C7.36660729 10.97533063 6.07651653 11.019574 3.3125 10.3125 C1 9 1 9 0.3125 6.9375 C0.209375 6.298125 0.10625 5.65875 0 5 C-0.66 4.67 -1.32 4.34 -2 4 C-1.01 4 -0.02 4 1 4 C1.33 4.99 1.66 5.98 2 7 C4.01508358 7.73323796 4.01508358 7.73323796 6 8 C6 7.34 6 6.68 6 6 C5.34 6 4.68 6 4 6 C2.61061923 4.03852126 1.2739589 2.03833424 0 0 Z " fill="#070709" transform="translate(164,155)"/>
<path d="M0 0 C0.66 0 1.32 0 2 0 C2 4.29 2 8.58 2 13 C2.66 13 3.32 13 4 13 C4 14.98 4 16.96 4 19 C3.34 19 2.68 19 2 19 C2 17.35 2 15.7 2 14 C1.34 14 0.68 14 0 14 C-1.125 8.375 -1.125 8.375 0 5 C0.03874921 3.33378384 0.0450286 1.66605828 0 0 Z " fill="#0F0F11" transform="translate(61,130)"/>
<path d="M0 0 C0.99 0.33 1.98 0.66 3 1 C-1.625 5 -1.625 5 -5 5 C-4.67 5.99 -4.34 6.98 -4 8 C-5 10 -5 10 -6.9375 10.6875 C-9 11 -9 11 -11 10 C-11 9.34 -11 8.68 -11 8 C-10.34 8 -9.68 8 -9 8 C-9 7.34 -9 6.68 -9 6 C-8.34 6 -7.68 6 -7 6 C-7 5.34 -7 4.68 -7 4 C-5.68 4 -4.36 4 -3 4 C-2.67 3.01 -2.34 2.02 -2 1 C-1.34 0.67 -0.68 0.34 0 0 Z " fill="#18181A" transform="translate(67,81)"/>
<path d="M0 0 C0.33 0 0.66 0 1 0 C1.1875 2.875 1.1875 2.875 1 6 C-2.56739574 8.37826383 -4.87242542 8.38656475 -9.0390625 8.65625 C-10.00972656 8.82640625 -10.00972656 8.82640625 -11 9 C-11.33 9.66 -11.66 10.32 -12 11 C-12.33 10.01 -12.66 9.02 -13 8 C-11.02 8 -9.04 8 -7 8 C-7 7.34 -7 6.68 -7 6 C-5.02 6 -3.04 6 -1 6 C-0.67 4.02 -0.34 2.04 0 0 Z " fill="#101010" transform="translate(83,71)"/>
<path d="M0 0 C0.66 0 1.32 0 2 0 C2 1.65 2 3.3 2 5 C3.65 4.67 5.3 4.34 7 4 C7 4.66 7 5.32 7 6 C6.01 6.66 5.02 7.32 4 8 C3.34 8.66 2.68 9.32 2 10 C-0.4294516 6.3558226 -0.16179575 4.28758728 0 0 Z " fill="#151517" transform="translate(40,152)"/>
<path d="M0 0 C0.66 0.33 1.32 0.66 2 1 C2 2.32 2 3.64 2 5 C-6.42857143 7.28571429 -6.42857143 7.28571429 -11 7 C-11 6.34 -11 5.68 -11 5 C-5.555 4.01 -5.555 4.01 0 3 C0 2.01 0 1.02 0 0 Z " fill="#101011" transform="translate(173,74)"/>
<path d="M0 0 C1.24546405 2.49092811 0.7767578 3.41080733 0 6 C-0.99 6 -1.98 6 -3 6 C-2.67 7.32 -2.34 8.64 -2 10 C-3.32 10.33 -4.64 10.66 -6 11 C-5.34 9.02 -4.68 7.04 -4 5 C-3.34 5 -2.68 5 -2 5 C-2 3.68 -2 2.36 -2 1 C-1.34 0.67 -0.68 0.34 0 0 Z " fill="#0F0F10" transform="translate(194,207)"/>
<path d="M0 0 C-0.99 0 -1.98 0 -3 0 C-3 0.66 -3 1.32 -3 2 C-4.32 2 -5.64 2 -7 2 C-7 2.66 -7 3.32 -7 4 C-7.66 4 -8.32 4 -9 4 C-9 4.66 -9 5.32 -9 6 C-9.66 6 -10.32 6 -11 6 C-10.67 4.35 -10.34 2.7 -10 1 C-3.71428571 -1.42857143 -3.71428571 -1.42857143 0 0 Z " fill="#0F0F11" transform="translate(84,104)"/>
<path d="M0 0 C0.99 0.33 1.98 0.66 3 1 C3.309375 1.825 3.61875 2.65 3.9375 3.5 C4.288125 4.325 4.63875 5.15 5 6 C7.04105639 6.88693303 7.04105639 6.88693303 9 7 C5.39703406 7.41176754 4.21597933 7.1535853 1.1875 5 C0.465625 4.34 -0.25625 3.68 -1 3 C-0.67 2.01 -0.34 1.02 0 0 Z " fill="#101010" transform="translate(105,225)"/>
<path d="M0 0 C0.99 0.33 1.98 0.66 3 1 C3.33 3.64 3.66 6.28 4 9 C1.27573689 6.64722731 0.1858237 4.37503669 -1 1 C-0.67 0.67 -0.34 0.34 0 0 Z " fill="#101012" transform="translate(216,116)"/>
<path d="M0 0 C1.98 0.66 3.96 1.32 6 2 C5.67 3.65 5.34 5.3 5 7 C4.67 6.01 4.34 5.02 4 4 C3.34 4 2.68 4 2 4 C2 3.34 2 2.68 2 2 C1.34 2 0.68 2 0 2 C0 1.34 0 0.68 0 0 Z " fill="#121214" transform="translate(48,170)"/>
<path d="M0 0 C2.97 0.495 2.97 0.495 6 1 C6 1.66 6 2.32 6 3 C6.66 3 7.32 3 8 3 C7.67 3.99 7.34 4.98 7 6 C3.535 4.02 3.535 4.02 0 2 C0 1.34 0 0.68 0 0 Z " fill="#121213" transform="translate(181,46)"/>
<path d="M0 0 C0.99 0.33 1.98 0.66 3 1 C-1.625 5 -1.625 5 -5 5 C-5.33 5.66 -5.66 6.32 -6 7 C-6.33 6.01 -6.66 5.02 -7 4 C-5.68 4 -4.36 4 -3 4 C-2.67 3.01 -2.34 2.02 -2 1 C-1.34 0.67 -0.68 0.34 0 0 Z " fill="#101012" transform="translate(67,81)"/>
<path d="M0 0 C0.66 0.33 1.32 0.66 2 1 C1.67 3.64 1.34 6.28 1 9 C-0.32 9.33 -1.64 9.66 -3 10 C-3 9.34 -3 8.68 -3 8 C-2.34 8 -1.68 8 -1 8 C-0.67 5.36 -0.34 2.72 0 0 Z " fill="#101011" transform="translate(87,61)"/>
<path d="M0 0 C0.66 0.66 1.32 1.32 2 2 C-0.97 3.65 -3.94 5.3 -7 7 C-7 6.01 -7 5.02 -7 4 C-4.68806023 1.92722641 -2.97064418 0.99021473 0 0 Z " fill="#0E0E10" transform="translate(123,60)"/>
<path d="M0 0 C-0.66 1.32 -1.32 2.64 -2 4 C-4.97 3.505 -4.97 3.505 -8 3 C-7.67 2.34 -7.34 1.68 -7 1 C-4.61370553 0.38812962 -2.46459429 0 0 0 Z " fill="#0F0F11" transform="translate(172,231)"/>
<path d="M0 0 C0.66 0.66 1.32 1.32 2 2 C1 5 1 5 -1.0625 6.1875 C-1.701875 6.455625 -2.34125 6.72375 -3 7 C-3.66 6.34 -4.32 5.68 -5 5 C-3.68 4.67 -2.36 4.34 -1 4 C-0.67 2.68 -0.34 1.36 0 0 Z " fill="#18181A" transform="translate(125,113)"/>
<path d="M0 0 C2.64 0.33 5.28 0.66 8 1 C8 1.66 8 2.32 8 3 C5.36 3 2.72 3 0 3 C0 2.01 0 1.02 0 0 Z " fill="#0C0C0D" transform="translate(150,56)"/>
<path d="" fill="#000000" transform="translate(0,0)"/>
<path d="" fill="#000000" transform="translate(0,0)"/>
</svg>
